<svg xmlns="http://www.w3.org/2000/svg" xmlns:xlink="http://www.w3.org/1999/xlink" width="1536" zoomAndPan="magnify" viewBox="0 0 1152 287.999989" height="384" preserveAspectRatio="xMidYMid meet" version="1.0"><defs><g/><clipPath id="283e02f1c8"><path d="M 0 57.179688 L 231.75 57.179688 L 231.75 231.179688 L 0 231.179688 Z M 0 57.179688 " clip-rule="nonzero"/></clipPath></defs><g clip-path="url(#283e02f1c8)"><path fill="#ffffff" d="M 115.875 57.179688 L 96.5625 231.179688 L 115.875 231.179688 L 135.1875 57.179688 Z M 55.109375 89.011719 L 0 144.179688 L 55.109375 199.347656 L 68.761719 185.675781 L 27.308594 144.179688 L 68.761719 102.679688 Z M 176.640625 89.011719 L 162.988281 102.679688 L 204.441406 144.179688 L 162.988281 185.675781 L 176.640625 199.347656 L 231.75 144.179688 Z M 176.640625 89.011719 " fill-opacity="1" fill-rule="nonzero"/></g><g fill="#ffffff" fill-opacity="1"><g transform="translate(270.756694, 187.389107)"><g><path d="M 69.183594 -19.292969 L 30.871094 -19.292969 L 67.804688 -70.5625 C 69.183594 -72.355469 69.597656 -74.144531 69.597656 -75.9375 L 69.597656 -86.6875 C 69.597656 -89.167969 68.769531 -90.683594 65.601562 -90.683594 L 10.199219 -90.683594 C 7.027344 -90.683594 6.203125 -89.167969 6.203125 -86.6875 L 6.203125 -75.386719 C 6.203125 -72.90625 7.027344 -71.390625 10.199219 -71.390625 L 43.964844 -71.390625 L 6.753906 -19.984375 C 6.753906 -19.984375 4.960938 -17.917969 4.960938 -14.746094 L 4.960938 -3.996094 C 4.960938 -0.6875 5.511719 0 9.097656 0 L 69.183594 0 C 72.355469 0 73.179688 -1.515625 73.179688 -3.996094 L 73.179688 -15.296875 C 73.179688 -17.777344 72.355469 -19.292969 69.183594 -19.292969 Z M 69.183594 -19.292969 "/></g></g></g><g fill="#ffffff" fill-opacity="1"><g transform="translate(348.897371, 187.389107)"><g><path d="M 88.203125 -3.859375 L 57.746094 -86.410156 C 56.503906 -89.304688 55.128906 -90.683594 52.09375 -90.683594 L 38.863281 -90.683594 C 35.832031 -90.683594 34.316406 -89.304688 33.214844 -86.410156 L 2.617188 -3.859375 C 1.929688 -2.207031 1.929688 0 4.960938 0 L 19.433594 0 C 22.464844 0 23.566406 -0.828125 24.667969 -4.132812 L 28.527344 -15.023438 L 62.292969 -15.023438 L 66.152344 -4.132812 C 67.253906 -0.828125 68.359375 0 71.390625 0 L 85.859375 0 C 88.890625 0 88.890625 -2.207031 88.203125 -3.859375 Z M 45.480469 -64.773438 L 55.816406 -34.316406 L 35.144531 -34.316406 Z M 45.480469 -64.773438 "/></g></g></g><g fill="#ffffff" fill-opacity="1"><g transform="translate(439.165702, 187.389107)"><g><path d="M 80.070312 -26.875 C 80.070312 -30.183594 78.96875 -31.558594 75.9375 -31.558594 L 62.429688 -31.558594 C 59.398438 -31.558594 59.125 -29.355469 58.710938 -26.597656 C 57.609375 -19.984375 51.683594 -17.226562 44.238281 -17.226562 C 35.144531 -17.226562 28.941406 -22.1875 28.941406 -31.007812 L 28.941406 -59.675781 C 28.941406 -68.359375 35.144531 -73.457031 44.238281 -73.457031 C 51.683594 -73.457031 55.539062 -71.390625 58.433594 -66.839844 C 59.539062 -65.1875 59.675781 -62.570312 62.570312 -62.570312 L 75.800781 -62.570312 C 78.96875 -62.570312 80.070312 -63.257812 80.070312 -66.566406 C 78.28125 -84.070312 61.328125 -92.75 44.238281 -92.75 C 27.839844 -92.75 7.304688 -83.242188 7.304688 -61.605469 L 7.304688 -29.078125 C 7.304688 -7.441406 27.839844 2.066406 44.238281 2.066406 C 61.328125 2.066406 80.070312 -9.097656 80.070312 -26.875 Z M 80.070312 -26.875 "/></g></g></g><g fill="#ffffff" fill-opacity="1"><g transform="translate(526.264308, 187.389107)"><g/></g></g><g fill="#ffffff" fill-opacity="1"><g transform="translate(563.611977, 187.389107)"><g><path d="M 74.835938 -46.996094 C 76.074219 -47.546875 84.894531 -51.957031 84.894531 -65.875 C 84.894531 -78.832031 75.25 -90.820312 52.785156 -90.820312 L 14.195312 -90.820312 C 11.027344 -90.820312 10.199219 -89.304688 10.199219 -86.824219 L 10.199219 -3.996094 C 10.199219 -1.515625 11.027344 0 14.195312 0 L 54.714844 0 C 73.871094 0 87.515625 -8.957031 87.515625 -26.460938 C 87.515625 -41.34375 75.9375 -46.582031 74.835938 -46.996094 Z M 54.988281 -19.570312 L 31.835938 -19.570312 L 31.835938 -71.390625 L 52.785156 -71.390625 C 59.949219 -71.390625 64.222656 -69.875 64.222656 -63.671875 C 64.222656 -58.296875 60.777344 -55.402344 52.785156 -55.402344 L 50.992188 -55.402344 C 47.824219 -55.402344 46.996094 -53.886719 46.996094 -51.40625 L 46.996094 -40.933594 C 46.996094 -38.453125 47.824219 -36.933594 50.992188 -36.933594 L 54.164062 -36.933594 C 60.777344 -36.933594 65.601562 -35.003906 65.601562 -28.527344 C 65.601562 -22.328125 61.742188 -19.570312 54.988281 -19.570312 Z M 54.988281 -19.570312 "/></g></g></g><g fill="#ffffff" fill-opacity="1"><g transform="translate(658.290355, 187.389107)"><g><path d="M 81.449219 -29.078125 L 81.449219 -61.605469 C 81.449219 -83.378906 60.777344 -92.75 44.378906 -92.75 C 27.976562 -92.75 7.578125 -83.378906 7.578125 -61.605469 L 7.578125 -29.078125 C 7.578125 -7.304688 27.976562 2.066406 44.378906 2.066406 C 60.777344 2.066406 81.449219 -7.304688 81.449219 -29.078125 Z M 59.8125 -59.675781 L 59.8125 -31.007812 C 59.8125 -22.1875 53.472656 -17.089844 44.378906 -17.089844 C 35.417969 -17.089844 29.078125 -22.1875 29.078125 -31.007812 L 29.078125 -59.675781 C 29.078125 -68.496094 35.417969 -73.59375 44.378906 -73.59375 C 53.472656 -73.59375 59.8125 -68.496094 59.8125 -59.675781 Z M 59.8125 -59.675781 "/></g></g></g><g fill="#ffffff" fill-opacity="1"><g transform="translate(747.180528, 187.389107)"><g><path d="M 52.921875 -52.644531 C 47.410156 -54.851562 27.148438 -57.882812 27.148438 -66.289062 C 27.148438 -72.492188 34.730469 -74.285156 39.277344 -74.285156 C 43.414062 -74.285156 48.375 -73.042969 50.992188 -70.5625 C 52.644531 -68.910156 53.335938 -67.804688 53.886719 -66.429688 C 54.574219 -64.636719 54.988281 -62.707031 57.609375 -62.707031 L 71.113281 -62.707031 C 74.285156 -62.707031 75.109375 -63.257812 75.109375 -66.566406 C 75.109375 -84.757812 55.953125 -92.75 38.453125 -92.75 C 21.222656 -92.0625 4.960938 -83.242188 4.960938 -65.324219 C 4.960938 -47.824219 17.777344 -42.308594 31.699219 -37.898438 C 43.414062 -34.179688 55.679688 -34.039062 55.679688 -26.324219 C 55.679688 -18.605469 49.613281 -16.953125 42.171875 -16.953125 C 37.074219 -16.953125 31.421875 -18.191406 28.667969 -21.5 C 26.875 -23.566406 26.183594 -25.359375 26.046875 -27.148438 C 25.773438 -30.59375 24.257812 -31.007812 21.085938 -31.007812 L 7.71875 -31.007812 C 4.546875 -31.007812 3.722656 -30.320312 3.722656 -27.148438 C 3.722656 -7.855469 23.566406 2.066406 40.792969 2.066406 C 62.019531 2.066406 77.453125 -7.304688 77.453125 -26.875 C 77.453125 -45.617188 62.84375 -49.613281 52.921875 -52.644531 Z M 52.921875 -52.644531 "/></g></g></g><g fill="#ffffff" fill-opacity="1"><g transform="translate(830.558152, 187.389107)"><g><path d="M 71.527344 -90.683594 L 7.578125 -90.683594 C 4.410156 -90.683594 3.582031 -89.167969 3.582031 -86.6875 L 3.582031 -75.25 C 3.582031 -72.769531 4.410156 -71.25 7.578125 -71.25 L 28.804688 -71.25 L 28.804688 -3.996094 C 28.804688 -0.828125 30.320312 0 32.800781 0 L 46.445312 0 C 48.925781 0 50.441406 -0.828125 50.441406 -3.996094 L 50.441406 -71.25 L 71.527344 -71.25 C 74.699219 -71.25 75.523438 -72.769531 75.523438 -75.25 L 75.523438 -86.6875 C 75.523438 -89.167969 74.699219 -90.683594 71.527344 -90.683594 Z M 71.527344 -90.683594 "/></g></g></g><g fill="#ffffff" fill-opacity="1"><g transform="translate(909.663546, 187.389107)"><g><path d="M 49.613281 -18.882812 L 40.933594 -18.882812 L 40.933594 -71.527344 L 49.199219 -71.527344 C 52.371094 -71.527344 53.199219 -73.042969 53.199219 -75.523438 L 53.199219 -86.6875 C 53.199219 -89.167969 52.371094 -90.683594 49.199219 -90.683594 L 10.886719 -90.683594 C 7.71875 -90.683594 6.890625 -89.167969 6.890625 -86.6875 L 6.890625 -75.523438 C 6.890625 -73.042969 7.71875 -71.527344 10.886719 -71.527344 L 19.292969 -71.527344 L 19.292969 -18.882812 L 10.613281 -18.882812 C 7.441406 -18.882812 6.617188 -17.363281 6.617188 -14.882812 L 6.617188 -3.996094 C 6.617188 -1.515625 7.441406 0 10.613281 0 L 49.613281 0 C 52.785156 0 53.609375 -1.515625 53.609375 -3.996094 L 53.609375 -14.882812 C 53.609375 -17.363281 52.785156 -18.882812 49.613281 -18.882812 Z M 49.613281 -18.882812 "/></g></g></g><g fill="#ffffff" fill-opacity="1"><g transform="translate(970.853063, 187.389107)"><g><path d="M 80.070312 -26.875 C 80.070312 -30.183594 78.96875 -31.558594 75.9375 -31.558594 L 62.429688 -31.558594 C 59.398438 -31.558594 59.125 -29.355469 58.710938 -26.597656 C 57.609375 -19.984375 51.683594 -17.226562 44.238281 -17.226562 C 35.144531 -17.226562 28.941406 -22.1875 28.941406 -31.007812 L 28.941406 -59.675781 C 28.941406 -68.359375 35.144531 -73.457031 44.238281 -73.457031 C 51.683594 -73.457031 55.539062 -71.390625 58.433594 -66.839844 C 59.539062 -65.1875 59.675781 -62.570312 62.570312 -62.570312 L 75.800781 -62.570312 C 78.96875 -62.570312 80.070312 -63.257812 80.070312 -66.566406 C 78.28125 -84.070312 61.328125 -92.75 44.238281 -92.75 C 27.839844 -92.75 7.304688 -83.242188 7.304688 -61.605469 L 7.304688 -29.078125 C 7.304688 -7.441406 27.839844 2.066406 44.238281 2.066406 C 61.328125 2.066406 80.070312 -9.097656 80.070312 -26.875 Z M 80.070312 -26.875 "/></g></g></g><g fill="#ffffff" fill-opacity="1"><g transform="translate(1057.951649, 187.389107)"><g><path d="M 85.722656 -90.683594 L 67.117188 -90.683594 C 63.949219 -90.683594 62.984375 -90.410156 60.226562 -87.375 L 31.699219 -55.953125 L 31.699219 -86.6875 C 31.699219 -89.855469 30.183594 -90.683594 27.839844 -90.683594 L 14.195312 -90.683594 C 11.578125 -90.683594 10.199219 -89.855469 10.199219 -86.6875 L 10.199219 -3.996094 C 10.199219 -0.828125 11.578125 0 14.195312 0 L 27.839844 0 C 30.183594 0 31.699219 -0.828125 31.699219 -3.996094 L 31.699219 -28.527344 L 40.242188 -37.488281 C 47.683594 -25.082031 59.949219 -4.410156 59.949219 -4.410156 C 61.742188 -1.515625 63.535156 0 66.839844 0 L 83.65625 0 C 86.273438 0 86.824219 -2.617188 85.722656 -4.410156 L 56.09375 -53.199219 L 87.101562 -86.824219 C 88.339844 -88.066406 88.339844 -90.683594 85.722656 -90.683594 Z M 85.722656 -90.683594 "/></g></g></g></svg>